<mxfile host="app.diagrams.net" agent="Mozilla/5.0 (Windows NT 10.0; Win64; x64) AppleWebKit/537.36 (KHTML, like Gecko) Chrome/131.0.0.0 Safari/537.36" version="24.7.7">
  <diagram id="C5RBs43oDa-KdzZeNtuy" name="Page-1">
    <mxGraphModel dx="989" dy="509" grid="1" gridSize="10" guides="1" tooltips="1" connect="1" arrows="1" fold="1" page="1" pageScale="1" pageWidth="827" pageHeight="1169" math="0" shadow="0">
      <root>
        <mxCell id="WIyWlLk6GJQsqaUBKTNV-0" />
        <mxCell id="WIyWlLk6GJQsqaUBKTNV-1" parent="WIyWlLk6GJQsqaUBKTNV-0" />
        <mxCell id="qdUU1YijBji8Tg1G4ZgD-0" value="Заявка Акредитации отправлена в банк" style="rounded=0;whiteSpace=wrap;html=1;" vertex="1" parent="WIyWlLk6GJQsqaUBKTNV-1">
          <mxGeometry x="30" y="335" width="120" height="60" as="geometry" />
        </mxCell>
        <mxCell id="qdUU1YijBji8Tg1G4ZgD-1" value="Проведена ГО" style="rounded=0;whiteSpace=wrap;html=1;" vertex="1" parent="WIyWlLk6GJQsqaUBKTNV-1">
          <mxGeometry x="180" y="240" width="120" height="60" as="geometry" />
        </mxCell>
        <mxCell id="qdUU1YijBji8Tg1G4ZgD-3" value="С генеральным" style="rounded=0;whiteSpace=wrap;html=1;" vertex="1" parent="WIyWlLk6GJQsqaUBKTNV-1">
          <mxGeometry x="320" y="205" width="120" height="60" as="geometry" />
        </mxCell>
        <mxCell id="qdUU1YijBji8Tg1G4ZgD-4" value="Без генерального" style="rounded=0;whiteSpace=wrap;html=1;" vertex="1" parent="WIyWlLk6GJQsqaUBKTNV-1">
          <mxGeometry x="320" y="275" width="120" height="60" as="geometry" />
        </mxCell>
        <mxCell id="qdUU1YijBji8Tg1G4ZgD-5" value="Проведена филиалом" style="rounded=0;whiteSpace=wrap;html=1;" vertex="1" parent="WIyWlLk6GJQsqaUBKTNV-1">
          <mxGeometry x="180" y="420" width="120" height="60" as="geometry" />
        </mxCell>
        <mxCell id="qdUU1YijBji8Tg1G4ZgD-6" value="С генеральным" style="rounded=0;whiteSpace=wrap;html=1;" vertex="1" parent="WIyWlLk6GJQsqaUBKTNV-1">
          <mxGeometry x="320" y="395" width="120" height="60" as="geometry" />
        </mxCell>
        <mxCell id="qdUU1YijBji8Tg1G4ZgD-7" value="Без генерального" style="rounded=0;whiteSpace=wrap;html=1;" vertex="1" parent="WIyWlLk6GJQsqaUBKTNV-1">
          <mxGeometry x="320" y="465" width="120" height="60" as="geometry" />
        </mxCell>
      </root>
    </mxGraphModel>
  </diagram>
</mxfile>
